<svg xmlns="http://www.w3.org/2000/svg" version="1.1" xmlns:xlink="http://www.w3.org/1999/xlink" xmlns:svgjs="http://svgjs.dev/svgjs" width="100%" height="100%" viewBox="0 0 1000 600"><rect width="1000" height="600" x="0" y="0" fill="#ff8800"/><g><circle r="166.66666666666666" cx="351.0248667399088" cy="357.6617931705589" fill="#552200" transform="matrix(0.7406402849729221,0,0,0.7406402849729221,-2.9938102633148205,35.10127540204934)"/><path d="M370.85306959267825 383.6473199145649L370.85306959267825 383.6473199145649Q374.1622916049273 383.6473199145649 374.1622916049273 392.625618980585L374.1622916049273 392.625618980585Q374.1622916049273 397.50807768718204 370.06645124550425 404.4520189587867Q365.97061088608115 411.3688354597992 359.4335411733596 417.146411595939Q352.86934669004575 422.89686296148665 344.86753936534507 426.61295653261885Q336.8657320406444 430.32905010375106 327.9688072864009 430.32905010375106Q319.09900730274956 430.32905010375106 314.10804951378367 424.55147396761123Q309.14421649541 418.8010226020636 309.14421649541 411.66720793631345Q309.14421649541 404.5333932705633 311.47694676633967 395.5550942045432Q313.8096770372694 386.5767951385231 316.5492788670822 376.811877725329L316.5492788670822 376.811877725329Q323.9814660093466 350.8263474979958 324.17133940349197 340.2748117376278L324.17133940349197 340.2748117376278Q324.17133940349197 335.79922458991376 323.0049742680272 333.3579952366153Q321.83860913256234 330.91676588331677 318.50226234972104 330.91676588331677L318.50226234972104 330.91676588331677Q312.64331190180457 330.91676588331677 305.9977431067141 337.942081466698Q299.3792990822159 344.96739705007934 293.52034863429947 355.8986795987383L293.52034863429947 355.8986795987383Q280.03933764997316 380.90771808475205 279.2527193027992 404.7232666647088L279.2527193027992 404.7232666647088Q279.6324660910901 407.46286849452156 280.03933764997316 410.20247032433434Q280.41908443826406 412.9420721541471 280.41908443826406 416.06142077225076L280.41908443826406 416.06142077225076Q280.41908443826406 422.3001180084581 274.26176151383333 427.48094919156944Q268.13156335999486 432.66178037468075 260.50950282358497 432.66178037468075L260.50950282358497 432.66178037468075Q256.0067909052788 432.66178037468075 253.86393402849455 428.26756753874344Q251.72107715171032 423.87335470280607 251.72107715171032 417.4176593018611L251.72107715171032 417.4176593018611Q251.72107715171032 410.98908867150834 254.65055237566855 399.8408079581117Q257.58002759962676 388.7196520153073 261.0791230060213 376.2151327723004L261.0791230060213 376.2151327723004Q270.46429363092454 343.204286961586 270.65416702506997 327.01079891803914L270.65416702506997 327.01079891803914Q270.65416702506997 318.79199342860073 268.61980923065454 314.12653288674136Q266.5583266656469 309.43394757428973 260.69937621773045 309.43394757428973L260.69937621773045 309.43394757428973Q250.14784045736238 309.43394757428973 239.81330286173198 324.4610704823718Q229.45164049550934 339.515318161046 221.25995977666318 371.14280067155795L221.25995977666318 371.14280067155795Q219.08997812928672 379.3344813904041 217.92361299382188 385.4104300030582L217.92361299382188 385.4104300030582L217.73373959967643 389.0993988035982Q221.44983317080863 407.08312170623066 221.44983317080863 412.53520059526403L221.44983317080863 412.53520059526403Q221.44983317080863 423.87335470280607 213.44802584610792 427.7793216680837L213.44802584610792 427.7793216680837Q209.73193227497572 429.54243175657706 206.3142111803578 431.0885436803328Q202.89649008573986 432.66178037468075 198.99052312046223 432.66178037468075L198.99052312046223 432.66178037468075Q189.22560570726813 432.66178037468075 189.22560570726813 413.99993820724313Q189.22560570726813 395.3652208103978 199.56014330289855 341.0614300848017L199.56014330289855 341.0614300848017Q203.27623687403076 321.5315952584136 203.27623687403076 319.19886498748383L203.27623687403076 319.19886498748383Q203.27623687403076 303.38512373222784 195.27442954933002 303.38512373222784L195.27442954933002 303.38512373222784Q192.53482771951724 303.38512373222784 190.28347176036416 304.9312356559836Q188.0592405718033 306.5044723503315 185.8078846126502 308.2675824388249Q183.5565286534971 310.00356775672606 181.22379838256742 311.576804451074Q178.8639433410455 313.15004114542194 175.85309380531066 313.15004114542194Q172.81511949898362 313.15004114542194 172.81511949898362 307.86071087994185L172.81511949898362 307.86071087994185Q172.81511949898362 297.11930172542833 182.76991030632314 290.2838595361925L182.76991030632314 290.2838595361925Q192.34495432537182 283.2585439528111 206.01583870384354 283.2585439528111L206.01583870384354 283.2585439528111Q223.5926900475929 283.2585439528111 226.71203866569655 299.66903016109563L226.71203866569655 299.66903016109563Q227.49865701287052 304.5514888676927 227.87840380116143 310.00356775672606L227.87840380116143 310.00356775672606Q242.3359065268071 282.8787971645203 264.41546978886265 282.8787971645203L264.41546978886265 282.8787971645203Q288.42089176296474 282.8787971645203 291.9471119399515 305.907727397303L291.9471119399515 305.907727397303Q293.11347707541637 312.5532961923934 292.92360368127095 320.17535672880325L292.92360368127095 320.17535672880325L292.92360368127095 321.721468652559Q305.61799631842325 304.14461730880964 323.0049742680272 304.14461730880964L323.0049742680272 304.14461730880964Q347.60714119515785 304.14461730880964 347.60714119515785 333.846241107275L347.60714119515785 333.846241107275Q347.60714119515785 346.73050713857276 343.5926751475114 364.00898600580786Q339.6053338704571 381.28746487304295 337.7337246995949 388.82815109767614Q335.8892402993249 396.3417125517172 335.8892402993249 400.43755291114024L335.8892402993249 400.43755291114024Q335.8892402993249 407.86974005340466 341.0700714824362 407.86974005340466Q346.2509026655475 407.86974005340466 365.7807374919357 387.55328687984246L365.7807374919357 387.55328687984246Q369.27983289833026 383.6473199145649 370.85306959267825 383.6473199145649ZM498.5836143113753 302.7883787791993L498.5836143113753 302.7883787791993Q498.5836143113753 304.9312356559836 492.7246638634589 304.9312356559836L492.7246638634589 304.9312356559836Q490.55468221608237 304.9312356559836 487.05558680968784 304.36161547354726Q483.5293666327011 303.76487052051874 473.9543226136525 302.5985053850539Q464.40640336519607 301.43214024958905 453.5564951283137 301.43214024958905Q442.70658689143136 301.43214024958905 433.91816121955674 307.1825916151367Q425.12973554768206 312.93304298068426 419.189410787989 321.9384668172966Q413.2219612577037 330.91676588331677 409.99411355723123 342.03792182612113Q406.79339062735096 353.18620253951775 406.79339062735096 363.9276116940312L406.79339062735096 363.9276116940312Q406.79339062735096 383.4574465204194 415.77168969337106 394.38872906907835Q424.74998875939116 405.3200116177373 440.7536034087925 405.3200116177373L440.7536034087925 405.3200116177373Q469.66860886008396 405.3200116177373 485.1026033270491 384.81368505002973L485.1026033270491 384.81368505002973Q489.7951886395007 378.57498781382236 492.7246638634589 370.9529272774125L492.7246638634589 370.9529272774125Q478.4570345319587 369.18981718891916 470.8349739955488 360.29289243467565Q463.21291345913903 351.42309245102433 463.21291345913903 338.43032733735777Q463.21291345913903 325.43756222369115 470.45522720725796 317.81550168728137Q477.6704161847847 310.22056592146373 489.87656295127726 310.22056592146373Q502.08270971776994 310.22056592146373 508.61977943049146 319.4972374639981Q515.1839739138053 328.7739090065325 515.1839739138053 342.82454017329513L515.1839739138053 342.82454017329513Q515.1839739138053 347.7069988798922 514.7771023549222 351.99271263346066L514.7771023549222 351.99271263346066Q518.303322531909 350.4466007097049 520.6360528028387 348.68349062121155Q522.9959078443605 346.9203805327182 525.3286381152902 346.9203805327182L525.3286381152902 346.9203805327182Q529.2346050805679 346.9203805327182 529.2346050805679 350.2567273155595L529.2346050805679 350.2567273155595Q529.2346050805679 357.0921695047954 524.6505188504851 362.056002523169Q520.0664326204023 367.0469603121349 512.4443720839926 369.56956397721007L512.4443720839926 369.56956397721007Q506.58542163607603 398.10482264021056 487.5438326803476 414.7051822426405Q468.5022437246191 431.3055418450704 438.23099974371746 431.3055418450704Q407.9597557628158 431.3055418450704 390.9525246015027 412.9420721541471L390.9525246015027 412.9420721541471Q376.11527508756615 396.72145934000804 376.11527508756615 371.33267406570343L376.11527508756615 371.33267406570343Q376.11527508756615 354.1626942808371 381.67585305896836 338.1319548608435Q387.26355580096276 322.1283402114421 397.5167190848166 309.81369436258063Q407.7698823686703 297.5261732843114 422.41725848846147 290.093986142047Q437.0646346082526 282.6617989997826 455.3196052168071 282.6617989997826Q473.57457582536165 282.6617989997826 486.0790950683685 289.1174944007276Q498.5836143113753 295.5731898016726 498.5836143113753 302.7883787791993ZM492.31779230457585 327.39054570633L492.31779230457585 327.39054570633Q488.2219519451527 327.39054570633 488.2219519451527 334.0361145014204L488.2219519451527 334.0361145014204Q488.2219519451527 345.75401539725334 497.60712257005594 351.01622089214123L497.60712257005594 351.01622089214123Q498.17674275249226 345.75401539725334 498.17674275249226 340.08493834348235L498.17674275249226 340.08493834348235Q498.17674275249226 327.39054570633 492.31779230457585 327.39054570633Z " fill="#ff8800" transform="matrix(0.7406402849729221,0,0,0.7406402849729221,-2.9938102633148205,35.10127540204934)"/><path d="M799.0986425968795 383.4485499411025L799.0986425968795 383.4485499411025Q802.4084632578273 383.4485499411025 802.4084632578273 392.4284732097396L802.4084632578273 392.4284732097396Q802.4084632578273 397.31181516851507 798.3118819479656 404.25701262099574Q794.2153006381039 411.17508039592764 787.6770483488547 416.953701713812Q781.1116663820565 422.7051933541475 773.1084115051744 426.42195917832663Q765.1051566282924 430.13872500250574 756.2066223923016 430.13872500250574Q747.3352178338595 430.13872500250574 742.3433571648891 424.36010368462144Q737.3786261734673 418.60861204428585 737.3786261734673 411.47350684896395Q737.3786261734673 404.338401653642 739.71177844266 395.3584783850049Q742.0449307118527 386.3785551163678 744.7850281442768 376.6118711988168L744.7850281442768 376.6118711988168Q752.218559792635 350.62164010711183 752.4084675354762 340.0681955406471L752.4084675354762 340.0681955406471Q752.4084675354762 335.5917987451029 751.2418914008798 333.1501277657151Q750.0753152662835 330.7084567863274 746.738364927787 330.7084567863274L746.738364927787 330.7084567863274Q740.8783545772563 330.7084567863274 734.231583577812 337.73504327145434Q727.6119422559163 344.76162975658127 721.7519319053857 355.6948898087286L721.7519319053857 355.6948898087286Q708.2684821636558 380.7084525086785 707.4817215147419 404.5283093964833L707.4817215147419 404.5283093964833Q707.8615370004245 407.2684068289073 708.2684821636558 410.0085042613313Q708.6482976493382 412.7486016937553 708.6482976493382 415.8685146118618L708.6482976493382 415.8685146118618Q708.6482976493382 422.10834044807496 702.4898608457714 427.29010885988674Q696.3585537197533 432.4718772716985 688.7351143285539 432.4718772716985L688.7351143285539 432.4718772716985Q684.2315878554609 432.4718772716985 682.0883433291094 428.0768695088005Q679.945098802758 423.6818617459026 679.945098802758 417.2249984892995L679.945098802758 417.2249984892995Q679.945098802758 410.7952649102451 682.8751039780233 399.6449674377078Q685.8051091532886 388.52179964271926 689.3048375570777 376.0150182927443L689.3048375570777 376.0150182927443Q698.6917059889461 342.99820071591233 698.8816137317873 326.8017832193071L698.8816137317873 326.8017832193071Q698.8816137317873 318.581490922035 696.8468879156309 313.91518638364954Q694.7850324219257 309.22175216771535 688.9250220713951 309.22175216771535L688.9250220713951 309.22175216771535Q678.3715775049304 309.22175216771535 668.0351703588556 324.2515935297243Q657.6716335352321 339.308564569282 649.4784709155089 370.9417685911275L649.4784709155089 370.9417685911275Q647.3080967116086 379.1349312108508 646.1415205770122 385.2119789817714L646.1415205770122 385.2119789817714L645.951612834171 388.9016151284017Q649.6683786583501 406.88859134322473 649.6683786583501 412.341656530524L649.6683786583501 412.341656530524Q649.6683786583501 423.6818617459026 641.6651237814681 427.58853531292294L641.6651237814681 427.58853531292294Q637.948357957289 429.3519643535919 634.5300185861462 430.89835597387076Q631.1116792150033 432.4718772716985 627.205005647983 432.4718772716985L627.205005647983 432.4718772716985Q617.438321730432 432.4718772716985 617.438321730432 413.8066591181567Q617.438321730432 395.1685706421636 627.7747288765067 340.85495618956094L627.7747288765067 340.85495618956094Q631.4914947006858 321.32158835445904 631.4914947006858 318.9884360852663L631.4914947006858 318.9884360852663Q631.4914947006858 303.17183407434356 623.4882398238038 303.17183407434356L623.4882398238038 303.17183407434356Q620.7481423913798 303.17183407434356 618.4963791548334 304.71822569462245Q616.2717455958357 306.29174699245004 614.0199823592892 308.055176033119Q611.7682191227427 309.79147539623915 609.43506685355 311.3649966940668Q607.0747849068085 312.9385179918945 604.0633906988969 312.9385179918945Q601.0248668134367 312.9385179918945 601.0248668134367 307.6482308698877L601.0248668134367 307.6482308698877Q601.0248668134367 296.90487856058166 610.9814584738289 290.068199818296L610.9814584738289 290.068199818296Q620.5582346485386 283.0416133331691 634.2315921331099 283.0416133331691L634.2315921331099 283.0416133331691Q651.8116231847016 283.0416133331691 654.9315361028081 299.4550682501644L654.9315361028081 299.4550682501644Q655.7182967517219 304.3384102089399 656.0981122374044 309.79147539623915L656.0981122374044 309.79147539623915Q670.5582303708895 282.6617978474866 692.6417878955742 282.6617978474866L692.6417878955742 282.6617978474866Q716.6515525262203 282.6617978474866 720.1784106075581 305.69489408637753L720.1784106075581 305.69489408637753Q721.3449867421544 312.3416650858219 721.1550789993132 319.9651044770214L721.1550789993132 319.9651044770214L721.1550789993132 321.51149609730027Q733.8517680921294 303.9314650457086 751.2418914008798 303.9314650457086L751.2418914008798 303.9314650457086Q775.8485089375985 303.9314650457086 775.8485089375985 333.6384619615927L775.8485089375985 333.6384619615927Q775.8485089375985 346.5250587972502 771.833316660383 363.80666339580563Q767.8452540607165 381.08826799436105 765.9733063098525 388.63031835291423Q764.1284882365374 396.1452390339187 764.1284882365374 400.2418203437804L764.1284882365374 400.2418203437804Q764.1284882365374 407.6753519921386 769.3102566483491 407.6753519921386Q774.4920250601608 407.6753519921386 794.0253928952627 387.35522350812283L794.0253928952627 387.35522350812283Q797.5251212990518 383.4485499411025 799.0986425968795 383.4485499411025ZM871.5620113295977 412.9385094365966L871.5620113295977 412.9385094365966Q856.1252248043575 431.1153933942608 834.5571311530991 431.1153933942608Q812.961907824292 431.1153933942608 802.218555514986 420.0736146319185Q791.4752032056799 409.0318358695762 791.6651109485213 392.6183809525809L791.6651109485213 392.6183809525809Q791.4752032056799 369.3682472932999 806.3151368248476 352.57497689062205Q821.1550704440153 335.7817064879442 845.1919647522101 335.7817064879442L845.1919647522101 335.7817064879442Q856.1252248043575 335.7817064879442 862.7719958038018 338.5218039203682L862.7719958038018 338.5218039203682Q874.3021087620217 343.2152381363024 874.3021087620217 347.311819446164L874.3021087620217 347.311819446164Q874.3021087620217 350.43173236427054 858.1870802980627 350.5402510744656Q842.0720518341036 350.62164010711183 831.2201808146025 361.6634188694541Q820.3954394726502 372.70519763179647 820.3954394726502 389.49846803447434L820.3954394726502 389.49846803447434Q820.3954394726502 398.2884835602702 825.5500782069132 404.25701262099574Q830.731846618725 410.19841200417255 840.2001040832397 410.19841200417255Q849.695491225303 410.19841200417255 855.9353170615161 406.2917384371522L855.9353170615161 406.2917384371522Q842.0720518341036 396.93199968283255 842.0720518341036 379.1349312108508L842.0720518341036 379.1349312108508Q841.8821440912623 369.77519245653116 848.8002118661942 362.0432343551367Q855.7454093186749 354.33840593129094 866.5701506606272 354.2298872210959Q877.4220216801282 354.14849818844965 882.1154558960625 360.1984162818215Q886.8088901119966 366.24833437519334 886.8088901119966 375.716591839708Q886.8088901119966 385.2119789817714 882.3053636389037 395.7382938706874L882.3053636389037 395.7382938706874L883.4719397735 395.7382938706874Q892.0720475564547 395.5483861278462 898.3118733926676 389.68837577731557L898.3118733926676 389.68837577731557Q900.6721553394092 387.35522350812283 902.3270656698832 385.59179446745395Q903.981976000357 383.828365426785 905.745405041026 383.828365426785L905.745405041026 383.828365426785Q908.48550247345 383.828365426785 908.48550247345 390.28522868338814L908.48550247345 390.28522868338814Q908.48550247345 402.19515712729054 901.458915988323 408.16368618801613Q894.4051998256473 414.10508557119294 885.9136107528877 414.10508557119294Q877.4220216801282 414.10508557119294 871.5620113295977 412.9385094365966ZM869.7985822889286 390.28522868338814L869.7985822889286 390.28522868338814Q873.1355326274253 383.2586421982612 873.1355326274253 376.6118711988168Q873.1355326274253 369.96510019937244 868.8219138971735 369.96510019937244L868.8219138971735 369.96510019937244Q867.0584848565047 369.96510019937244 865.8919087219083 372.51528988895524Q864.725332587312 375.03834990098915 864.725332587312 377.39863184773066L864.725332587312 377.39863184773066Q864.725332587312 385.2119789817714 869.7985822889286 390.28522868338814ZM977.6390505452202 412.9385094365966L977.6390505452202 412.9385094365966Q962.20226401998 431.1153933942608 940.6070406911731 431.1153933942608Q919.0389470399148 431.1153933942608 908.2955947306086 420.0736146319185Q897.5522424213027 409.0318358695762 897.7421501641439 392.6183809525809L897.7421501641439 392.6183809525809Q897.5522424213027 369.3682472932999 912.3921760404703 352.57497689062205Q927.2321096596379 335.7817064879442 951.2690039678328 335.7817064879442L951.2690039678328 335.7817064879442Q962.20226401998 335.7817064879442 968.8490350194245 338.5218039203682L968.8490350194245 338.5218039203682Q980.3520183000956 343.2152381363024 980.3520183000956 347.311819446164L980.3520183000956 347.311819446164Q980.3520183000956 350.43173236427054 964.2369898361366 350.5402510744656Q948.1219613721775 350.62164010711183 937.2972200302252 361.6634188694541Q926.4453490107242 372.70519763179647 926.4453490107242 389.49846803447434L926.4453490107242 389.49846803447434Q926.4453490107242 398.2884835602702 931.6271174225359 404.25701262099574Q936.8088858343476 410.19841200417255 946.2771432988624 410.19841200417255Q955.745400763377 410.19841200417255 962.0123562771389 406.2917384371522L962.0123562771389 406.2917384371522Q948.1219613721775 396.93199968283255 948.1219613721775 379.1349312108508L948.1219613721775 379.1349312108508Q947.9320536293362 369.77519245653116 954.8772510818169 362.0432343551367Q961.7953188567487 354.33840593129094 972.6471898762499 354.2298872210959Q983.499060895751 354.14849818844965 988.1653654341363 360.1984162818215Q992.8587996500705 366.24833437519334 992.8587996500705 375.716591839708Q992.8587996500705 385.2119789817714 988.3824028545264 395.7382938706874L988.3824028545264 395.7382938706874L989.5489789891228 395.7382938706874Q998.1490867720772 395.5483861278462 1004.3889126082904 389.68837577731557L1004.3889126082904 389.68837577731557Q1006.722064877483 387.35522350812283 1008.4041048855058 385.59179446745395Q1010.0590152159797 383.828365426785 1011.8224442566486 383.828365426785L1011.8224442566486 383.828365426785Q1014.5354120115239 383.828365426785 1014.5354120115239 390.28522868338814L1014.5354120115239 390.28522868338814Q1014.5354120115239 402.19515712729054 1007.508825526397 408.16368618801613Q1000.4822390412701 414.10508557119294 991.9906499685105 414.10508557119294Q983.499060895751 414.10508557119294 977.6390505452202 412.9385094365966ZM975.8756215045514 390.28522868338814L975.8756215045514 390.28522868338814Q979.1854421654991 383.2586421982612 979.1854421654991 376.6118711988168Q979.1854421654991 369.96510019937244 974.8989531127963 369.96510019937244L974.8989531127963 369.96510019937244Q973.1355240721274 369.96510019937244 971.968947937531 372.51528988895524Q970.8023718029347 375.03834990098915 970.8023718029347 377.39863184773066L970.8023718029347 377.39863184773066Q970.8023718029347 385.2119789817714 975.8756215045514 390.28522868338814ZM1033.3091488752607 396.7149622624425L1033.3091488752607 396.7149622624425L1034.4757250098571 420.561948827796Q1034.4757250098571 425.25538304373026 1029.5923830510815 428.9450191903606Q1024.709041092306 432.6617850145397 1016.2988410521928 432.6617850145397L1016.2988410521928 432.6617850145397Q1011.4154990934173 432.6617850145397 1009.5706810201021 427.58853531292294Q1007.6987332692382 422.51528561130624 1007.6987332692382 412.7486016937553L1007.6987332692382 412.7486016937553Q1007.6987332692382 392.23856546689836 1009.7605887629434 380.59993379848345Q1011.8224442566486 368.98843180761736 1017.8723623500205 357.07850336371496L1017.8723623500205 357.07850336371496Q1008.8924390813834 348.4783955807604 1008.8924390813834 342.2385697445473L1008.8924390813834 342.2385697445473Q1008.8924390813834 329.13493548849976 1022.9456120516372 329.13493548849976L1022.9456120516372 329.13493548849976Q1030.1621062796053 329.13493548849976 1035.6423011444535 336.75837487969926L1035.6423011444535 336.75837487969926Q1039.5489747114739 342.02153232415725 1041.3124037521427 349.07524848683295L1041.3124037521427 349.07524848683295Q1044.0525011845668 350.05191687858803 1048.1490824944283 350.05191687858803L1048.1490824944283 350.05191687858803Q1053.8191851021177 350.05191687858803 1061.225587072927 346.3351510544089L1061.225587072927 346.3351510544089L1066.2988367745438 343.7849613648262Q1068.6591187212853 342.6183852302298 1070.4225477619543 342.6183852302298L1070.4225477619543 342.6183852302298Q1076.0655206920947 342.6183852302298 1081.735623299784 359.2217478900664L1081.735623299784 359.2217478900664Q1079.9721942591152 366.8451872812659 1077.9374684429586 373.87177376639283Q1075.8756129492535 380.89836025151976 1073.1355155168294 390.85495191191194Q1070.4225477619543 400.8386732498529 1070.3140290517592 404.25701262099574Q1070.2055103415641 407.6753519921386 1072.3758845454645 407.6753519921386L1072.3758845454645 407.6753519921386Q1075.3058897207297 407.6753519921386 1079.5923787734328 403.9585861679595Q1083.8788678261355 400.2418203437804 1088.1924865563872 395.84681258088244Q1092.4789756090902 391.4518048179845 1096.0872227230743 387.7350389938054Q1099.722599514607 384.0182731696263 1101.0790833920446 384.0182731696263L1101.0790833920446 384.0182731696263Q1103.8191808244687 384.0182731696263 1103.8191808244687 390.66504416907065L1103.8191808244687 390.66504416907065Q1103.8191808244687 404.1484939108007 1091.9906414132124 417.2249984892995Q1080.1892316795052 430.32863274534697 1064.942352897106 430.13872500250574L1064.942352897106 430.13872500250574Q1055.9624296284692 430.13872500250574 1051.4589031553762 422.89510109698875Q1046.9825063598319 415.6786068690206 1046.765468939442 405.3150700453971L1046.765468939442 405.3150700453971Q1046.765468939442 384.80503381854015 1055.9624296284692 366.4382421180346L1055.9624296284692 366.4382421180346Q1051.6488108982173 368.2016711587035 1046.2771347435644 368.2016711587035Q1040.9054585889114 368.2016711587035 1038.5723063197188 367.821855673021L1038.5723063197188 367.821855673021Q1036.8088772790497 375.22825764383043 1035.0454482383807 382.7703080023837Q1033.3091488752607 390.28522868338814 1033.3091488752607 396.7149622624425ZM1139.548966156176 408.2450752206624L1139.548966156176 408.2450752206624Q1154.7958449385749 408.2450752206624 1169.0660553292187 396.1452390339187L1169.0660553292187 396.1452390339187Q1174.3292127736768 391.6417125608258 1177.6390334346245 387.84355770400043Q1180.9759837731212 384.0182731696263 1182.7394128137898 384.0182731696263L1182.7394128137898 384.0182731696263Q1185.4523805686654 384.0182731696263 1185.4523805686654 389.49846803447434Q1185.4523805686654 394.97866289932233 1182.5223753934001 401.706822931413Q1179.5923702181349 408.4349829635036 1172.755691475849 414.89184622010674L1172.755691475849 414.89184622010674Q1155.9624210731713 430.70844823102954 1126.6623693205183 430.70844823102954L1126.6623693205183 430.70844823102954Q1103.4122356612374 430.70844823102954 1095.029165298673 413.91517782835166L1095.029165298673 413.91517782835166Q1092.0991601234075 408.0551674778211 1092.0991601234075 397.1219074256738Q1092.0991601234075 386.1886473735265 1096.3856491761105 374.3601079622703Q1100.6992679063621 362.53156855101423 1107.8072434241353 353.9585904456084Q1114.9423486194573 345.35848266265384 1124.3292170513255 340.5565297365246Q1133.6889558056453 335.7817064879442 1144.3509190823052 335.7817064879442Q1154.9857526814162 335.7817064879442 1160.7643739993005 341.04486393240217Q1166.515865639636 346.3351510544089 1166.515865639636 354.7182214169735Q1166.515865639636 363.1284214570868 1162.3107656195793 368.5000976117398Q1158.1056655995226 373.87177376639283 1151.4860242776272 377.4800208803769Q1144.8392532781827 381.08826799436105 1136.7274796911056 383.93688413698004Q1128.6157061040285 386.7583706020503 1120.8023589699878 390.28522868338814L1120.8023589699878 390.28522868338814L1120.8023589699878 395.1685706421636Q1120.992266712829 402.19515712729054 1126.6623693205183 405.1251623025558Q1132.3324719282077 408.0551674778211 1139.548966156176 408.2450752206624ZM1136.239145495228 353.17182979669457L1136.239145495228 353.17182979669457Q1126.0926460919945 353.17182979669457 1122.1859725249742 376.8017789416581L1122.1859725249742 376.8017789416581Q1126.2825538348359 374.0616815092341 1129.89080094882 371.91843698288267Q1133.499048062804 369.77519245653116 1136.239145495228 367.821855673021L1136.239145495228 367.821855673021Q1142.0991558457586 363.5082369427693 1142.2890635886 358.05517175547004L1142.2890635886 358.05517175547004Q1142.2890635886 353.17182979669457 1136.239145495228 353.17182979669457Z " fill="#552200" transform="matrix(0.7406402849729221,0,0,0.7406402849729221,-2.9938102633148205,35.10127540204934)"/></g></svg>